<?xml version="1.0" encoding="UTF-8"?>
<svg id="Layer_1" data-name="Layer 1" xmlns="http://www.w3.org/2000/svg" viewBox="0 0 150 150">
  <defs>
    <style>
      .cls-1 {
        fill: #4285f4;
      }

      .cls-2 {
        fill: none;
      }
    </style>
  </defs>
  <g id="Layer_2" data-name="Layer 2">
    <path class="cls-2" d="M0,0H150V150H0V0Z"/>
  </g>
  <path class="cls-1" d="M94.1,54.61c-12.42-5.94-28.01-6.45-37.24,4.77-7.32,8.9-7.83,21.46-.75,30.86,.39,.51,.3,.61-.25,.29C10.76,64.41,34.37-.54,85.97,8.74c61.77,10.03,77.69,91.97,24.12,124.39,22.57-24.73,16.11-62.63-15.99-78.52Z"/>
  <path class="cls-1" d="M40.59,17.94c-25.52,25.92-12.49,68.82,20.86,80.23,16,5.76,34-.02,37.62-18.24,1.39-7.03-.18-13.57-4.7-19.59-.24-.32-.18-.39,.17-.19,16.11,8.93,26.2,26.17,23.84,44.69-8.97,54.35-79.68,44.89-101.47,4.34C-2.21,77.55,10.67,33.83,40.59,17.94Z"/>
</svg>