<svg viewBox="0 0 512 512" xmlns="http://www.w3.org/2000/svg" fill-rule="evenodd" clip-rule="evenodd" stroke-linejoin="round" stroke-miterlimit="2"><path d="M0 128C0 57.312 57.312 0 128 0h255.999c70.688 0 128 57.312 128 128v255.999c0 70.688-57.312 128-128 128h-256c-70.687 0-128-57.312-128-128v-256z" fill="#1868db" fill-rule="nonzero"/><path d="M406.004 244.949H319.84l74.624-43.083-16.395-28.394-74.613 43.082 43.072-74.613-28.395-16.395-43.071 74.613v-86.154h-32.78v86.165l-43.092-74.624-28.384 16.384 43.082 74.613-74.623-43.071-16.384 28.383 74.623 43.083h-86.165v32.779h86.155l-74.613 43.082 16.384 28.395 74.613-43.072-43.083 74.613 28.395 16.384 43.082-74.624v86.176h32.779v-86.165l43.072 74.613 28.394-16.384-43.082-74.624 74.624 43.083 16.384-28.395-74.614-43.072h86.155V244.95h.021zm-147.338 60.96c-24.715 0-44.747-20.032-44.747-44.747s20.032-44.747 44.747-44.747c24.714 0 44.746 20.032 44.746 44.747s-20.032 44.747-44.746 44.747z" fill="#fff" fill-rule="nonzero"/></svg>